<mxfile host="app.diagrams.net" modified="2024-07-22T12:22:57.195Z" agent="Mozilla/5.0 (Windows NT 10.0; Win64; x64) AppleWebKit/537.36 (KHTML, like Gecko) Chrome/126.0.0.0 Safari/537.36" version="23.1.5" etag="7U7T83Ptxy51mZPlq-Uk" type="github">
  <diagram name="PÃ¡gina-1" id="sYmJXDbOW__8yF_SrliJ">
    <mxGraphModel>
      <root>
        <mxCell id="0" />
        <mxCell id="1" parent="0" />
      </root>
    </mxGraphModel>
  </diagram>
</mxfile>
